<svg xmlns="http://www.w3.org/2000/svg" width="14" height="18.261" viewBox="0 0 14 18.261"><defs><style>.a{fill:#fff;}</style></defs><path class="a" d="M92.615,28.465l-2.77-1.8,1.044-1.915a3.052,3.052,0,0,0,.372-1.457V20.261a4.261,4.261,0,1,0-8.522,0v3.031a3.052,3.052,0,0,0,.372,1.457l1.044,1.915-2.77,1.8A3.033,3.033,0,0,0,80,31.017v3.244H94V31.017A3.033,3.033,0,0,0,92.615,28.465Zm.167,4.578H81.217V31.017a1.82,1.82,0,0,1,.831-1.531l3.715-2.415-1.584-2.9a1.832,1.832,0,0,1-.223-.874V20.261a3.043,3.043,0,1,1,6.087,0v3.031a1.832,1.832,0,0,1-.223.874l-1.584,2.9,3.715,2.415h0a1.82,1.82,0,0,1,.831,1.531Z" transform="translate(-80 -16)"/></svg>