<svg xmlns="http://www.w3.org/2000/svg" width="14" height="17.206" viewBox="0 0 14 17.206"><defs><style>.a{fill:#a9b7c9;}</style></defs><g transform="translate(-47.699)"><path class="a" d="M58.813,0h-6.16L52.34.313,48.012,4.641l-.313.313v9.366a2.89,2.89,0,0,0,2.887,2.887h8.227A2.89,2.89,0,0,0,61.7,14.319V2.886A2.889,2.889,0,0,0,58.813,0ZM55.5,3.78a1.2,1.2,0,0,1,2.4,0v.287a1.2,1.2,0,0,1-2.4,0ZM48.667,5.454,53,1.127V3.94A1.515,1.515,0,0,1,51.48,5.454Zm7.541,8.558h-5.42v-.751h5.42Zm2.323-2.255H50.789v-.752h7.743Zm0-2.256H50.789V8.75h7.743Zm-.36-2.346H55.237c-.388,0-.564-.564-.34-.963a1.893,1.893,0,0,1,.9-.835,1.584,1.584,0,0,0,1.818,0,1.892,1.892,0,0,1,.9.835C58.735,6.591,58.559,7.155,58.171,7.155Z"/></g></svg>