<svg xmlns="http://www.w3.org/2000/svg" width="14" height="24.698" viewBox="0 0 14 24.698"><defs><style>.a{fill:#a9b7c9;}</style></defs><g transform="translate(-110.886 -0.001)"><path class="a" d="M191.606,46.888a2.123,2.123,0,1,0-2.369,1.845A2.124,2.124,0,0,0,191.606,46.888Z" transform="translate(-72.801 -42.355)"/><path class="a" d="M251.852,11.083c-.992-1.588-1.779-3.391-1.981-3.741a.533.533,0,0,1-.038-.561q.608-.879,1.239-1.743c.364-.5.884-1.052.685-1.732-.114-.391-.46-.554-.753-.792-.735-.6-1.467-1.205-2.206-1.8-.207-.166-.407-.342-.617-.5a.824.824,0,0,0-1.232,1.077l-.773.8a2.776,2.776,0,0,1,.5.514l.771-.8L249.4,3.689l-1.538,1.638c-.85.832-2.869,2.029-2.407,3.716.352,1.285,1.564,3.493,1.564,4.116,0,.863-.473,5.224-.473,5.224,0,.017,0,.034-.006.051l-1.37,4.734a.969.969,0,0,0,1.855.562l1.648-4.384a1.226,1.226,0,0,0,.059-.159l.018-.047c.025-.083.891-4.187.891-4.187l.038-.382-.414,4.116a1.358,1.358,0,0,0-.02.223l.2,4.711a1.077,1.077,0,1,0,2.154,0l.278-4.541.665-4.193A4.84,4.84,0,0,0,251.852,11.083Z" transform="translate(-127.763 0)"/><path class="a" d="M114.59,125.879l-3.532,3.678a.618.618,0,0,0-.108.7l.9,1.81a.556.556,0,0,0,.809.215l.672-.453a.557.557,0,0,0,.1-.83l-1.2-1.62,2.9-3.016A2.771,2.771,0,0,1,114.59,125.879Z" transform="translate(0 -119.806)"/></g></svg>