<svg xmlns="http://www.w3.org/2000/svg" width="14" height="14" viewBox="0 0 14 14"><defs><style>.a{fill:#a9b7c9;}</style></defs><g transform="translate(0 -0.008)"><path class="a" d="M7,.008a7,7,0,1,0,7,7A7,7,0,0,0,7,.008ZM8.229,10.221c-.283.314-.445.5-.751.793-.463.442-.988.56-1.4.123-.587-.628.029-2.538.044-2.61l.33-1.522A5.858,5.858,0,0,1,5.7,7.4a.379.379,0,0,1-.5-.225.4.4,0,0,1,.1-.433c.283-.314.445-.5.751-.793.463-.443.988-.56,1.4-.124.587.628.154,1.661,0,2.392-.015.073-.376,1.74-.376,1.74a5.875,5.875,0,0,1,.758-.394.38.38,0,0,1,.5.225A.4.4,0,0,1,8.229,10.221Zm-.759-5.4A1.187,1.187,0,1,1,8.548,3.538,1.187,1.187,0,0,1,7.469,4.824Z"/></g></svg>