<svg xmlns="http://www.w3.org/2000/svg" width="14" height="17.138" viewBox="0 0 14 17.138"><defs><style>.a{fill:#a9b7c9;}</style></defs><g transform="translate(-46.872)"><path class="a" d="M60.7,2.754a3.053,3.053,0,0,0-.958-1.167,7.159,7.159,0,0,0-2.5-1.161A12.949,12.949,0,0,0,53.872,0a11.546,11.546,0,0,0-4.815.95,4.846,4.846,0,0,0-1.55,1.095,2.654,2.654,0,0,0-.463.709,2.042,2.042,0,0,0-.172.813v10a2.041,2.041,0,0,0,.172.813A3.056,3.056,0,0,0,48,15.551a7.159,7.159,0,0,0,2.5,1.161,12.962,12.962,0,0,0,3.371.426,11.544,11.544,0,0,0,4.815-.95,4.841,4.841,0,0,0,1.55-1.095,2.646,2.646,0,0,0,.463-.709,2.04,2.04,0,0,0,.172-.813v-10A2.041,2.041,0,0,0,60.7,2.754Zm-.794,10.818a1.073,1.073,0,0,1-.093.43,2.109,2.109,0,0,1-.665.788,6.232,6.232,0,0,1-2.16.992,12.01,12.01,0,0,1-3.117.392,10.6,10.6,0,0,1-4.4-.857,3.9,3.9,0,0,1-1.243-.866,1.681,1.681,0,0,1-.3-.449,1.073,1.073,0,0,1-.093-.43V11.919a6.177,6.177,0,0,0,2.28,1.22,12.5,12.5,0,0,0,3.754.544,11.429,11.429,0,0,0,4.763-.938,5.109,5.109,0,0,0,1.271-.83v1.657Zm0-2.82a1.847,1.847,0,0,1-.3.444,5.035,5.035,0,0,1-2.2,1.253,11.779,11.779,0,0,1-3.534.51,10.725,10.725,0,0,1-4.453-.869,4.02,4.02,0,0,1-1.282-.894,1.852,1.852,0,0,1-.3-.444V8.584a6.177,6.177,0,0,0,2.28,1.22,12.508,12.508,0,0,0,3.754.544,11.429,11.429,0,0,0,4.763-.938,5.108,5.108,0,0,0,1.271-.83v2.172Zm0-3.335a1.84,1.84,0,0,1-.3.444,5.033,5.033,0,0,1-2.2,1.253,11.777,11.777,0,0,1-3.534.51,10.728,10.728,0,0,1-4.453-.868,4.02,4.02,0,0,1-1.282-.894,1.841,1.841,0,0,1-.3-.444V5.249a6.177,6.177,0,0,0,2.28,1.22,12.488,12.488,0,0,0,3.754.544,11.425,11.425,0,0,0,4.763-.938,5.108,5.108,0,0,0,1.271-.83V7.417Zm0-3.335a1.841,1.841,0,0,1-.3.444,5.033,5.033,0,0,1-2.2,1.254,11.779,11.779,0,0,1-3.534.51,10.725,10.725,0,0,1-4.453-.869,4.026,4.026,0,0,1-1.282-.894,1.846,1.846,0,0,1-.3-.444V3.567a1.072,1.072,0,0,1,.093-.43,2.109,2.109,0,0,1,.665-.788,6.228,6.228,0,0,1,2.16-.991A12,12,0,0,1,53.872.966a10.6,10.6,0,0,1,4.4.857,3.9,3.9,0,0,1,1.243.866,1.677,1.677,0,0,1,.3.449,1.073,1.073,0,0,1,.093.43Z"/></g></svg>