<svg xmlns="http://www.w3.org/2000/svg" width="14" height="16.73" viewBox="0 0 14 16.73"><defs><style>.a{fill:#a9b7c9;}</style></defs><g transform="translate(-41.781 -0.001)"><path class="a" d="M55.609,8.876c-.942-3.756-4.59-5.169-4.909-5.512L51.6.1A4.114,4.114,0,0,0,48.905.41,2.815,2.815,0,0,1,45.794.175l.986,3.24c-.309.352-4.189,1.929-4.891,5.64-.606,3.193,1.29,7.749,6.958,7.675S56.4,12.029,55.609,8.876Zm-4.165.32v.89H49.609l-.306.476v.568h2.14v.891H49.3v1.551H48.259V12.022h-2.14v-.891h2.14v-.568l-.306-.476H46.118V9.2H47.38l-1.5-2.335h1.07l1.832,2.851,1.833-2.851h1.069L50.183,9.2Z" transform="translate(0 0)"/></g></svg>